<?xml version="1.0" standalone="no"?>
<!DOCTYPE svg PUBLIC "-//W3C//DTD SVG 20010904//EN"
 "http://www.w3.org/TR/2001/REC-SVG-20010904/DTD/svg10.dtd">
<svg version="1.0" xmlns="http://www.w3.org/2000/svg"
 width="472.000000pt" height="236.000000pt" viewBox="0 0 472.000000 236.000000"
 preserveAspectRatio="xMidYMid meet">

<g transform="translate(0.000000,236.000000) scale(0.100000,-0.100000)"
fill="#000000" stroke="none">
<path d="M2405 2300 c-9 -10 -22 -38 -29 -62 -22 -72 -7 -139 64 -275 35 -66
60 -126 56 -132 -13 -20 -75 -12 -184 24 -172 57 -332 76 -478 55 -77 -11
-107 -22 -229 -83 -85 -43 -159 -88 -188 -115 -34 -31 -53 -42 -65 -37 -36 15
-131 18 -147 5 -34 -29 -4 -134 53 -182 32 -27 27 -38 -18 -38 -33 0 -76 -48
-145 -161 -59 -99 -68 -119 -72 -174 -4 -49 -2 -65 11 -78 10 -9 20 -17 24
-17 26 0 78 51 125 123 84 126 141 153 265 124 73 -17 116 -10 195 29 88 45
243 75 392 75 211 0 255 -10 490 -115 28 -13 81 -46 118 -74 75 -58 118 -67
137 -31 9 16 7 28 -9 60 -12 22 -21 42 -21 45 0 3 39 -16 87 -41 48 -25 96
-45 107 -45 29 1 56 23 56 47 0 26 -15 38 -63 51 -20 6 -59 26 -85 45 -26 19
-62 42 -79 51 -69 35 -29 78 69 74 42 -2 53 1 69 21 31 38 30 111 -2 198 -21
56 -64 106 -156 183 -25 21 -31 35 -38 85 -4 33 -18 95 -31 137 -20 63 -32 83
-66 112 -40 35 -96 54 -117 41 -6 -3 -20 14 -33 39 -25 53 -40 61 -63 36z"/>
<path d="M3599 2302 c-181 -48 -318 -201 -351 -391 -10 -62 -10 -84 4 -152 18
-86 89 -246 165 -369 106 -172 267 -360 308 -360 25 0 128 103 199 199 160
215 267 436 282 579 13 125 -42 269 -140 368 -126 126 -294 171 -467 126z
m256 -171 c100 -44 178 -151 191 -261 18 -159 -100 -317 -263 -350 -91 -19
-199 12 -275 79 -47 41 -95 136 -103 206 -14 112 52 244 152 306 83 52 208 60
298 20z"/>
<path d="M3618 1989 c-16 -9 -18 -28 -18 -169 l0 -160 90 0 90 0 0 70 c0 54 3
70 15 70 10 0 15 -15 17 -56 2 -44 8 -60 23 -70 18 -12 24 -11 43 2 20 14 22
23 22 123 l0 107 -39 38 c-23 22 -44 35 -51 31 -8 -5 -6 -13 6 -26 13 -15 15
-22 6 -31 -27 -27 -7 -78 30 -78 17 0 19 -8 16 -72 -4 -86 -21 -97 -28 -18 -6
64 -14 80 -41 80 -17 0 -19 7 -19 75 0 63 -3 76 -19 85 -25 13 -121 13 -143
-1z m122 -74 l0 -45 -50 0 -50 0 0 45 0 45 50 0 50 0 0 -45z m130 -30 c0 -8
-7 -15 -15 -15 -8 0 -15 7 -15 15 0 8 7 15 15 15 8 0 15 -7 15 -15z"/>
<path d="M570 1060 c0 -6 -76 -10 -207 -10 -161 0 -204 -3 -195 -12 17 -17 17
-399 0 -416 -9 -9 5 -12 62 -11 41 0 69 3 63 6 -9 3 -13 32 -13 94 l0 89 93 0
c59 0 97 -4 105 -12 9 -9 12 1 12 47 0 46 -3 56 -12 47 -8 -8 -46 -12 -105
-12 l-93 0 0 56 0 55 138 -3 c75 -2 145 -7 155 -12 15 -7 17 -2 17 48 0 31 -4
56 -10 56 -5 0 -10 -4 -10 -10z"/>
<path d="M2164 1028 c24 -33 23 -379 0 -402 -14 -15 -9 -16 57 -16 57 0 70 3
61 12 -7 7 -12 44 -12 95 l0 83 130 0 130 0 0 -83 c0 -51 -5 -88 -12 -95 -9
-9 5 -12 62 -11 41 0 69 3 63 6 -18 7 -18 404 -1 421 9 9 -4 12 -60 12 -66 0
-88 -9 -62 -25 6 -3 10 -40 10 -81 l0 -74 -130 0 -130 0 0 74 c0 41 5 78 10
81 26 16 4 25 -61 25 l-70 0 15 -22z"/>
<path d="M3065 980 c-4 -6 -74 -10 -176 -10 -165 0 -169 -1 -159 -19 15 -28
13 -314 -2 -329 -9 -9 25 -12 153 -12 133 0 169 -3 187 -16 22 -15 22 -15 22
42 0 45 -3 55 -12 46 -8 -8 -52 -12 -130 -12 l-118 0 0 45 0 45 69 0 c39 0 73
-4 76 -10 15 -24 25 -6 25 41 0 45 -2 50 -17 43 -10 -4 -48 -10 -85 -12 l-68
-4 0 41 0 41 113 0 c75 0 117 -4 125 -12 9 -9 12 1 12 45 0 57 -3 66 -15 47z"/>
<path d="M3310 935 c0 -46 3 -56 12 -47 7 7 38 12 70 12 l58 0 0 -139 c0 -102
-3 -141 -12 -144 -7 -3 18 -6 57 -6 54 -1 66 2 57 11 -8 8 -12 55 -12 145 l0
133 58 0 c32 0 63 -5 70 -12 9 -9 12 1 12 47 0 46 -3 56 -12 47 -17 -17 -329
-17 -346 0 -9 9 -12 -1 -12 -47z"/>
<path d="M4065 980 c-4 -6 -74 -10 -178 -10 -133 0 -168 -3 -159 -12 17 -17
17 -334 0 -341 -7 -3 63 -6 155 -6 95 -1 177 -5 188 -11 18 -10 19 -7 19 42 0
40 -3 49 -12 40 -8 -8 -52 -12 -130 -12 l-118 0 0 45 0 45 73 0 c43 0 78 -5
85 -12 9 -9 12 0 12 40 0 50 -1 52 -20 42 -11 -6 -48 -10 -83 -8 l-62 3 -3 38
-3 37 120 0 c86 0 121 -3 124 -12 3 -7 6 13 6 45 1 56 -2 66 -14 47z"/>
<path d="M710 955 c11 -13 1 -40 -59 -163 -40 -81 -80 -155 -88 -164 -15 -17
-12 -18 53 -18 46 0 64 3 54 10 -12 8 -12 13 3 44 l17 36 80 0 81 0 15 -36
c13 -30 13 -38 2 -45 -8 -5 19 -9 66 -9 75 0 78 1 58 18 -11 9 -54 82 -95 162
-59 113 -74 149 -66 163 9 15 4 17 -62 17 -63 0 -70 -2 -59 -15z m110 -202 c0
-1 -25 -3 -55 -3 l-55 0 27 55 27 54 28 -51 c15 -28 28 -53 28 -55z"/>
<path d="M1050 951 c15 -28 13 -314 -2 -329 -9 -9 3 -12 58 -11 38 0 63 3 57
6 -9 3 -13 28 -13 74 l0 69 100 0 100 0 0 -63 c0 -36 -5 -68 -12 -75 -9 -9 3
-12 58 -11 38 0 63 3 57 6 -18 7 -18 324 -1 341 9 9 -3 12 -57 12 -54 0 -66
-3 -57 -12 7 -7 12 -38 12 -70 l0 -58 -100 0 -100 0 0 58 c0 32 5 63 12 70 9
9 -3 12 -55 12 -64 0 -67 -1 -57 -19z"/>
<path d="M1528 958 c17 -17 17 -334 0 -341 -7 -3 18 -6 57 -6 54 -1 66 2 57
11 -7 7 -12 38 -12 70 l0 58 44 0 c43 0 46 -2 85 -57 23 -32 39 -64 36 -70 -3
-10 14 -13 68 -13 58 1 69 3 56 13 -29 23 -103 131 -91 135 6 2 26 13 44 26
31 21 33 25 33 81 0 56 -2 60 -34 82 -32 22 -44 23 -194 23 -125 0 -158 -3
-149 -12z m292 -78 c8 -15 6 -24 -10 -40 -17 -17 -33 -20 -100 -20 l-80 0 0
40 0 40 90 0 c79 0 91 -2 100 -20z"/>
<path d="M3150 961 c0 -6 5 -13 10 -16 13 -8 13 -291 0 -316 -10 -18 -7 -19
50 -19 57 0 60 1 50 19 -13 25 -13 308 0 316 25 15 5 25 -50 25 -33 0 -60 -4
-60 -9z"/>
<path d="M4158 958 c17 -17 17 -319 0 -336 -9 -9 3 -12 58 -11 38 0 63 3 57 6
-9 3 -13 27 -13 69 l0 64 44 0 c43 0 45 -2 86 -62 31 -46 38 -63 28 -70 -7 -4
22 -7 67 -7 44 0 74 3 67 6 -11 4 -102 125 -102 136 0 2 14 10 30 17 41 17 60
46 60 93 0 91 -36 107 -242 107 -118 0 -149 -3 -140 -12z m290 -87 c6 -38 -22
-51 -110 -51 l-78 0 0 40 0 41 93 -3 c89 -3 92 -4 95 -27z"/>
<path d="M1795 529 c-4 -6 -5 -13 -2 -16 7 -7 27 6 27 18 0 12 -17 12 -25 -2z"/>
<path d="M1837 533 c-12 -11 -8 -23 7 -23 8 0 16 7 20 15 5 15 -14 21 -27 8z"/>
<path d="M1225 423 c-20 -38 -48 -79 -63 -91 -17 -15 -22 -26 -15 -29 8 -3 8
-13 -3 -38 -16 -39 -18 -65 -5 -65 5 0 17 22 26 49 18 56 30 68 75 81 29 8 31
7 24 -13 -3 -12 -13 -34 -20 -49 -16 -31 -18 -68 -5 -68 5 0 15 17 22 38 20
62 49 112 64 112 8 0 15 5 15 10 0 6 -4 10 -10 10 -5 0 4 23 21 51 30 48 33
69 9 54 -6 -4 -24 -30 -41 -60 -23 -41 -36 -54 -61 -59 -49 -10 -49 -9 -19 42
34 58 46 92 33 92 -6 0 -27 -30 -47 -67z"/>
<path d="M2250 448 c-18 -24 -50 -81 -73 -128 -32 -64 -43 -79 -45 -62 -2 13
4 44 12 69 19 55 19 53 6 53 -6 0 -31 -31 -56 -70 -25 -38 -47 -70 -49 -70 -6
0 43 136 61 172 8 15 14 37 14 50 0 19 -2 20 -14 8 -19 -20 -83 -196 -88 -240
-5 -55 23 -50 56 10 15 27 29 50 31 50 2 0 1 -16 -2 -35 -7 -44 12 -72 35 -53
8 7 28 41 43 76 16 34 49 94 73 132 49 76 46 107 -4 38z"/>
<path d="M3624 467 c-12 -14 -40 -64 -64 -111 -24 -47 -45 -84 -47 -82 -3 3
21 133 33 174 13 44 -22 22 -63 -40 -68 -105 -115 -208 -94 -208 5 0 28 37 49
83 22 45 47 91 57 102 16 20 16 20 11 -5 -13 -54 -19 -180 -9 -180 16 0 29 20
57 90 15 36 42 91 62 124 37 62 42 97 8 53z"/>
<path d="M677 446 c-47 -51 -107 -166 -107 -205 0 -68 40 -48 133 69 l28 35
-15 -31 c-20 -42 -32 -114 -18 -114 5 0 15 21 21 48 7 26 32 84 57 129 24 46
44 85 44 88 0 21 -33 -12 -115 -115 -90 -113 -115 -137 -115 -107 0 26 53 124
91 170 50 59 46 88 -4 33z"/>
<path d="M880 455 c-11 -12 -17 -24 -14 -28 10 -9 -15 -65 -32 -71 -8 -3 -14
-12 -14 -21 0 -9 -11 -38 -25 -65 -27 -53 -31 -70 -16 -70 5 0 20 23 33 51
l23 52 24 -52 c14 -28 30 -51 38 -51 17 0 18 -5 -18 65 l-30 60 38 6 c47 6 77
22 97 51 19 27 21 72 3 87 -22 18 -84 10 -107 -14z m100 -25 c0 -26 -42 -66
-77 -75 -35 -8 -37 -3 -17 37 25 50 34 58 65 58 23 0 29 -5 29 -20z"/>
<path d="M1071 443 c-53 -49 -111 -147 -111 -189 0 -36 22 -64 50 -64 24 0 77
45 96 81 19 38 3 37 -19 -1 -19 -32 -64 -60 -84 -53 -19 7 -16 61 7 108 21 43
102 135 120 135 18 0 10 -35 -15 -64 -29 -34 -30 -36 -10 -36 19 0 55 57 55
86 0 20 -17 34 -40 34 -4 0 -26 -17 -49 -37z"/>
<path d="M1560 462 c-19 -10 -44 -35 -55 -56 l-20 -37 27 -49 c15 -27 25 -56
22 -65 -7 -17 -47 -30 -69 -21 -17 6 -21 36 -5 36 6 0 10 5 10 10 0 15 -26 12
-40 -5 -10 -12 -10 -21 -2 -40 22 -48 132 -24 132 28 0 12 -9 37 -20 55 -11
18 -20 44 -20 58 0 40 79 100 96 73 8 -13 -13 -37 -48 -55 -16 -8 -26 -19 -23
-24 8 -12 53 10 78 38 24 26 19 66 -8 70 -11 1 -36 -6 -55 -16z"/>
<path d="M1704 437 c-51 -58 -96 -148 -98 -195 -1 -33 2 -37 24 -37 18 0 37
17 79 70 30 39 51 61 46 50 -20 -52 -34 -108 -29 -116 9 -15 24 1 24 25 0 12
22 67 50 122 27 54 50 102 50 107 0 22 -25 -4 -111 -113 -115 -146 -149 -160
-87 -35 11 22 38 64 60 93 50 68 45 89 -8 29z"/>
<path d="M2363 473 c-13 -2 -23 -11 -23 -19 0 -9 -18 -46 -39 -82 -44 -75 -76
-150 -68 -158 3 -4 30 -1 59 6 82 19 82 20 71 31 -6 6 -24 7 -54 0 -24 -5 -44
-9 -46 -8 -1 1 10 25 25 52 20 37 34 51 52 53 50 5 71 13 65 23 -4 5 -22 7
-42 3 l-35 -7 23 41 c24 40 47 52 105 52 13 0 24 5 24 10 0 10 -73 12 -117 3z"/>
<path d="M2534 466 c-36 -16 -74 -61 -74 -88 0 -10 11 -40 25 -67 23 -47 23
-49 6 -65 -37 -34 -91 -7 -60 30 12 14 11 16 -5 13 -28 -6 -43 -35 -30 -56 15
-24 79 -29 110 -8 30 20 30 42 -1 100 -23 44 -23 49 -10 76 19 36 72 66 89 49
11 -11 -13 -38 -60 -66 -30 -18 -9 -27 23 -11 41 22 65 52 61 79 -4 28 -31 33
-74 14z"/>
<path d="M2715 473 c-70 -16 -95 -25 -95 -34 0 -7 15 -8 41 -4 23 4 40 3 38
-1 -2 -5 -28 -57 -58 -117 -41 -81 -52 -110 -43 -119 9 -9 13 -7 18 8 16 49
98 205 119 228 18 20 34 26 64 26 22 0 43 5 46 10 6 10 -90 12 -130 3z"/>
<path d="M2884 469 c-17 -5 -31 -14 -31 -21 0 -7 -12 -33 -28 -58 -37 -58 -75
-141 -75 -162 0 -35 18 -17 45 47 25 60 30 65 64 71 59 9 69 18 24 22 l-43 3
26 39 c23 35 33 40 75 46 27 4 49 10 49 15 0 11 -65 10 -106 -2z"/>
<path d="M3039 423 c-30 -32 -61 -67 -69 -78 -8 -11 -27 -26 -42 -32 -30 -13
-40 -37 -11 -26 15 6 14 1 -5 -31 -12 -20 -22 -41 -22 -47 0 -23 20 -5 50 45
31 50 51 65 88 66 11 0 12 -13 7 -60 -4 -39 -3 -60 3 -60 10 0 14 14 28 92 4
25 12 38 27 42 20 6 20 8 6 19 -14 10 -14 17 -3 47 15 41 17 80 6 80 -5 0 -33
-26 -63 -57z m28 -29 c-11 -35 -38 -59 -59 -52 -9 3 56 88 67 88 2 0 -2 -16
-8 -36z"/>
<path d="M3361 471 c-13 -3 -25 -13 -27 -21 -1 -8 -23 -51 -48 -94 -44 -78
-64 -131 -52 -144 4 -3 21 0 39 6 19 7 43 12 55 12 11 0 23 4 27 9 10 17 -14
22 -52 12 -20 -6 -39 -9 -41 -7 -2 3 5 25 16 50 21 46 21 46 100 62 13 2 20 9
17 15 -4 5 -22 7 -42 3 l-35 -7 27 41 c27 40 48 52 98 52 15 0 27 5 27 10 0
11 -71 12 -109 1z"/>
<path d="M456 449 c-18 -14 -24 -24 -17 -29 8 -4 0 -32 -25 -84 -19 -43 -38
-93 -41 -112 -5 -31 -4 -34 21 -34 97 0 230 205 170 264 -22 23 -76 20 -108
-5z m97 -20 c17 -28 -20 -106 -78 -166 -90 -94 -99 -65 -25 86 43 87 53 102
72 99 11 -2 26 -10 31 -19z"/>
<path d="M1899 449 c-15 -13 -20 -22 -12 -25 8 -4 -1 -32 -27 -87 -50 -104
-57 -135 -36 -143 29 -11 67 6 112 52 74 73 106 171 68 208 -22 23 -77 20
-105 -5z m99 -31 c5 -38 -39 -117 -92 -166 -82 -76 -85 -49 -10 106 42 87 47
93 72 90 21 -2 28 -9 30 -30z"/>
<path d="M3227 455 c-45 -45 -137 -199 -137 -230 0 -18 7 -18 65 -3 56 15 60
33 5 24 -22 -3 -40 -4 -40 -1 0 14 42 86 85 143 44 61 58 104 22 67z"/>
</g>
</svg>
